<mxfile host="app.diagrams.net" modified="2023-09-25T07:05:59.162Z" agent="Mozilla/5.0 (Windows NT 10.0; Win64; x64; rv:109.0) Gecko/20100101 Firefox/118.0" version="21.7.4" etag="Ih8OLx2QBILQA58ygQ-T" type="github">
  <diagram name="Page-1" id="b3vR_Sor38G9pUzsrJoX">
    <mxGraphModel>
      <root>
        <mxCell id="0" />
        <mxCell id="1" parent="0" />
      </root>
    </mxGraphModel>
  </diagram>
</mxfile>
